<svg xmlns="http://www.w3.org/2000/svg" xmlns:xlink="http://www.w3.org/1999/xlink" xmlns:svgjs="http://svgjs.dev/svgjs" width="100px" height="50px" viewBox="0 0 1000 600">
<rect width="1000" height="600" x="0" y="0" fill="transparent"/><g><rect width="333.3333333333333" height="333.3333333333333" rx="13.333333333333334" ry="13.333333333333334" y="163.38806041499976" fill="#3177" transform="matrix(0.8854833904847719,0,0,0.8854833904847719,0,7.742021402788225)" x="141.16583251953128"/><path d="M176.53389198028182 327.8853686272695L176.53389198028182 396.31744377003145Q176.53389198028182 402.6011061137044 170.51952945133772 404.51612701844283L170.51952945133772 404.51612701844283Q168.90373056296468 405.05472664790045 167.2580094729551 405.05472664790045L167.2580094729551 405.05472664790045Q161.243646944011 405.05472664790045 158.7900264098149 400.14748557950827L158.7900264098149 400.14748557950827Q157.9821269656284 398.50176448949867 157.9821269656284 396.31744377003145L157.9821269656284 396.31744377003145L157.9821269656284 263.79201272180546Q157.9821269656284 259.42337128287096 160.97434712928217 257.2390505634037Q163.99648949457247 255.05472984393646 166.4501100287686 255.05472984393646Q168.90373056296468 255.05472984393646 170.6691404595204 255.62325167503067Q172.43455035607613 256.1618513044883 173.51174961499152 257.2390505634037L173.51174961499152 257.2390505634037Q176.53389198028182 259.6926710975998 176.53389198028182 263.79201272180546L176.53389198028182 263.79201272180546L176.53389198028182 321.3324064688677L239.78942623992276 258.3461720239556Q242.24304677411885 255.05472984393646 246.0730885835957 255.05472984393646Q249.87320819143602 255.05472984393646 252.47643973381477 257.2390505634037Q255.07967127619358 259.42337128287096 255.07967127619358 262.4155914465248Q255.07967127619358 265.43773381181506 252.89535055672633 268.16065416074L252.89535055672633 268.16065416074L196.16285625385063 323.2474273736061L258.8797908840339 390.3330034427239Q261.06411160350115 393.3252236063777 261.06411160350115 395.7788441405737Q261.06411160350115 398.23246467476986 260.37590096586075 399.7285747565967Q259.68769032822036 401.2246848384236 258.3411912545762 402.3318062989755L258.3411912545762 402.3318062989755Q255.34897109092245 405.05472664790045 251.51892928144557 405.05472664790045L251.51892928144557 405.05472664790045Q247.68888747196874 405.05472664790045 244.4273674935861 401.2246848384236L244.4273674935861 401.2246848384236L176.53389198028182 327.8853686272695ZM374.499178007616 380.78782112066835L375.06769983871015 380.78782112066835L424.97793216845525 270.6142746949361Q428.50875196156665 261.87699181706705 431.77027193994934 259.15407146814215L431.77027193994934 259.15407146814215Q436.4082131936127 255.05472984393646 441.19576545545874 255.05472984393646Q445.95339551566826 255.05472984393646 448.6763158645931 256.01224029630566Q451.4291584151547 256.96975074867487 453.3142571182566 258.8847716534133L453.3142571182566 258.8847716534133Q457.68289855719104 263.79201272180546 457.68289855719104 271.42217413912266L457.68289855719104 271.42217413912266L457.68289855719104 396.8859656011257Q457.68289855719104 400.9553850236948 454.9599782082661 403.0200169366159Q452.2370578593411 405.05472664790045 448.97553788095854 405.05472664790045Q445.68409570093934 405.05472664790045 443.11078636019715 403.0200169366159Q440.50755481781835 400.9553850236948 440.50755481781835 396.8859656011257L440.50755481781835 396.8859656011257L440.50755481781835 273.337195043861L386.2286810491388 393.5945234211065Q382.9671610707562 401.52390685478906 374.79840002398134 401.52390685478906L374.79840002398134 401.52390685478906Q367.4076162197565 401.52390685478906 363.6074966119162 393.5945234211065L363.6074966119162 393.5945234211065L309.59792265796546 274.14509448804756L309.59792265796546 396.8859656011257Q309.59792265796546 400.9553850236948 306.8750023090405 403.0200169366159Q304.15208196011554 405.05472664790045 300.89056198173296 405.05472664790045Q297.59911980171375 405.05472664790045 295.02581046097157 403.0200169366159Q292.42257891859276 400.9553850236948 292.42257891859276 396.8859656011257L292.42257891859276 396.8859656011257L292.42257891859276 271.42217413912266Q292.42257891859276 259.15407146814215 301.4291616111906 256.1618513044883L301.4291616111906 256.1618513044883Q304.15208196011554 255.05472984393646 307.2939131319521 255.05472984393646Q310.4357443037885 255.05472984393646 313.0090536445308 255.74294048157682Q315.6122851869096 256.4311511192172 317.79660590637684 258.3461720239556L317.79660590637684 258.3461720239556Q321.32742569948823 261.06909237288056 325.9653669531517 270.883574509665L325.9653669531517 270.883574509665L374.499178007616 380.78782112066835Z " fill="#e2d1f9" transform="matrix(0.8854833904847719,0,0,0.8854833904847719,0,7.742021402788225)"/><path d="M599.2107920573457 310.7075014463576L599.2107920573457 310.7075014463576Q575.85255403644 310.7075014463576 575.85255403644 325.4833565580668L575.85255403644 325.4833565580668Q575.85255403644 331.94226328354455 582.2819680371439 335.7173320546L582.2819680371439 335.7173320546Q587.1187749000587 338.13573548605746 602.1895572595066 341.7633406332435Q617.2308468941808 345.39094578042966 625.0169262344826 347.809349211887Q632.8324982995586 350.2277526433444 637.9347396854381 356.6571666440483Q643.0369810713178 363.116073369526 643.0369810713178 371.84591990259173Q643.0369810713178 380.6052591604314 639.2619123002622 386.91670226203973Q635.5163362539807 393.2281453636481 629.057429528503 397.26864865766834L629.057429528503 397.26864865766834Q616.965412371216 405.0547279979703 597.6181849195567 405.0547279979703L597.6181849195567 405.0547279979703Q582.8128370830735 405.0547279979703 570.4553854028217 400.21792113505546L570.4553854028217 400.21792113505546Q564.8222749710125 397.7995177035981 561.3126407229217 394.850245226211Q557.832499199605 391.87148002405 557.832499199605 389.3351056934971Q557.832499199605 386.76923863817035 559.7200335851327 385.029167876512Q561.5780752458866 383.2890971148536 564.0259714021179 383.2890971148536Q566.4443748335754 383.2890971148536 569.6590818339272 384.7637333535472Q572.873788834279 386.2383695922407 577.4451611742292 387.8604694548036L577.4451611742292 387.8604694548036Q589.802612854481 392.4318417947536 597.6181849195567 392.4318417947536Q605.4042642598587 392.4318417947536 609.9756365998086 391.34061097812037Q614.5470089397585 390.27887288626096 618.322077710814 387.8604694548036L618.322077710814 387.8604694548036Q626.3735915740807 382.7287353441501 626.3735915740807 373.88091791198883L626.3735915740807 373.88091791198883Q626.3735915740807 363.64694241545567 612.1286055083011 358.8101355525408L612.1286055083011 358.8101355525408Q606.7609295994567 356.95209389178694 600.5674573969437 355.74289217605826Q594.3739851944309 354.50419773555575 588.4754402396567 353.1770251207315Q582.5474025601087 351.82035978113345 577.3271902751336 349.96231812037956Q572.0774852653846 348.07478373485185 567.7715474483995 344.83058400972607L567.7715474483995 344.83058400972607Q558.8942372914643 338.4011700090223 558.8942372914643 326.30915285173523L558.8942372914643 326.30915285173523Q558.8942372914643 311.5038050152521 571.5466162194549 303.983160197915L571.5466162194549 303.983160197915Q582.0165335141791 297.7896879954022 599.7711538280493 297.7896879954022L599.7711538280493 297.7896879954022Q616.965412371216 297.7896879954022 627.7302569136788 303.4522911519854L627.7302569136788 303.4522911519854Q636.57807434584 308.02366349193534 636.57807434584 313.12590487781495L636.57807434584 313.12590487781495Q636.57807434584 315.2788737863075 634.6905399603123 316.9009736488704Q632.8324982995586 318.49358078665944 630.9449639140307 318.49358078665944L630.9449639140307 318.49358078665944Q627.4353296659401 318.49358078665944 625.1643898583521 317.01894454796593Q622.8639573259901 315.5443083092724 620.3275829954372 314.3351065935436Q617.7617159401105 313.12590487781495 614.5470089397585 312.3296013089205L614.5470089397585 312.3296013089205Q608.3535367372457 310.7075014463576 599.2107920573457 310.7075014463576ZM760.5065038456453 348.3402182578167L760.5065038456453 348.3402182578167Q760.5065038456453 350.75862168927415 758.8844039830824 352.4986924509325Q757.2623041205195 354.2387632125908 753.7821625972026 354.2387632125908L753.7821625972026 354.2387632125908L679.6079597909177 354.2387632125908Q680.1388288368473 374.14635243495366 690.0778770856416 383.02366259188875L690.0778770856416 383.02366259188875Q700.5477943803658 392.4318417947536 714.2619114002157 392.4318417947536L714.2619114002157 392.4318417947536Q728.7723319889603 392.4318417947536 745.1702869632325 381.6669972522907L745.1702869632325 381.6669972522907Q747.323255871725 380.0448973897278 749.6236884040868 380.0448973897278Q751.8946282116749 380.0448973897278 753.251293551273 381.6669972522907Q754.5784661660971 383.2890971148536 754.5784661660971 384.88170425264263L754.5784661660971 384.88170425264263Q754.5784661660971 388.1259039777684 752.4254972576045 390.27887288626096L752.4254972576045 390.27887288626096Q736.587904054036 405.0547279979703 712.9347387853916 405.0547279979703L712.9347387853916 405.0547279979703Q690.8741806545363 405.0547279979703 677.1600636346864 390.8097419321907L677.1600636346864 390.8097419321907Q662.1187740000121 375.4735250497779 662.1187740000121 351.5549252581686L662.1187740000121 351.5549252581686Q662.1187740000121 329.25842532912225 674.741660203229 314.18764296967436L674.741660203229 314.18764296967436Q688.4557772230789 297.7896879954022 711.3126389228287 297.7896879954022L711.3126389228287 297.7896879954022Q735.231238714438 297.7896879954022 748.1490521653934 312.3296013089205L748.1490521653934 312.3296013089205Q759.9756347997156 325.74879108103164 760.5065038456453 348.3402182578167ZM680.1388288368473 343.50341139490195L744.1085488713732 343.50341139490195Q743.0173180547397 328.43262903545394 734.9658041914731 319.5848116032927L734.9658041914731 319.5848116032927Q726.9142903282063 310.7075014463576 711.5780734457935 310.7075014463576L711.5780734457935 310.7075014463576Q698.1293909489084 310.7075014463576 689.547008039712 320.38111517218715L689.547008039712 320.38111517218715Q681.2005669287066 329.789294375052 680.1388288368473 343.50341139490195L680.1388288368473 343.50341139490195ZM778.4970659577064 351.82035978113345L778.4970659577064 351.82035978113345Q778.4970659577064 342.1467460553039 781.5938020589629 332.2076978065094Q784.6905381602194 322.26864955771487 791.149444885697 314.74800474037784L791.149444885697 314.74800474037784Q805.1289964285118 297.7896879954022 829.8438997890155 297.7896879954022L829.8438997890155 297.7896879954022Q854.0279341035896 297.7896879954022 868.5678474171079 314.74800474037784L868.5678474171079 314.74800474037784Q881.1907336203246 329.5238598520872 881.1907336203246 351.5549252581686L881.1907336203246 351.5549252581686Q881.1907336203246 373.32055614128524 868.5678474171079 388.39133850073324L868.5678474171079 388.39133850073324Q854.3228613513284 405.0547279979703 829.8438997890155 405.0547279979703L829.8438997890155 405.0547279979703Q804.8635619055469 405.0547279979703 791.149444885697 388.39133850073324L791.149444885697 388.39133850073324Q778.4970659577064 373.0551216183204 778.4970659577064 351.82035978113345ZM796.2516862715768 351.82035978113345L796.2516862715768 351.82035978113345Q796.2516862715768 358.2792665066112 798.1392206571043 365.5344768009834Q800.0267550426322 372.7896870953556 804.0377656118785 378.7177247749037L804.0377656118785 378.7177247749037Q813.4459448147434 392.4318417947536 829.8438997890155 392.4318417947536L829.8438997890155 392.4318417947536Q846.5072892862524 392.4318417947536 855.6500339661525 378.7177247749037L855.6500339661525 378.7177247749037Q863.1706787834896 367.1565766635463 863.1706787834896 351.5549252581686L863.1706787834896 351.5549252581686Q863.1706787834896 336.2482011005296 855.6500339661525 324.4216184662075L855.6500339661525 324.4216184662075Q846.7727238092173 310.7075014463576 829.8438997890155 310.7075014463576L829.8438997890155 310.7075014463576Q813.1805102917785 310.7075014463576 804.0377656118785 324.4216184662075L804.0377656118785 324.4216184662075Q796.2516862715768 335.9827665775648 796.2516862715768 351.82035978113345ZM974.7416566030429 400.21792113505546L923.9256918176634 347.5439146889222L923.9256918176634 394.5553179784722Q923.9256918176634 398.59582127249257 921.2418538632412 400.7487901809851Q918.558015908819 402.90175908947765 915.4612798075625 402.90175908947765Q912.364543706306 402.90175908947765 909.8281693757531 400.8962538048545Q907.2623023204264 398.8612557954574 907.2623023204264 394.5553179784722L907.2623023204264 394.5553179784722L907.2623023204264 263.4011709090688Q907.2623023204264 259.3606676150485 909.9461402748486 257.20769870655596Q912.6299782292708 255.05472979806336 914.9304107616329 255.05472979806336Q917.201350569221 255.05472979806336 918.6759868079143 255.61509156876693Q920.150623046608 256.1459606146966 921.2418538632412 257.20769870655596L921.2418538632412 257.20769870655596Q923.9256918176634 259.8915366609782 923.9256918176634 263.4011709090688L923.9256918176634 263.4011709090688L923.9256918176634 341.88131153233905L970.7011533090224 302.65598758309085Q973.1195567404798 300.2080914268596 976.068829217867 300.2080914268596L976.068829217867 300.2080914268596Q979.018101695254 300.2080914268596 981.1710706037466 302.0956258123873Q983.3240395122391 303.983160197915 983.3240395122391 305.8706945834428L983.3240395122391 305.8706945834428Q983.3240395122391 309.6162706297244 981.1710706037466 311.2383704922873L981.1710706037466 311.2383704922873L941.11995036083 344.56514948676124L986.2733119896263 391.34061097812037Q988.160846375154 393.75901440957773 988.160846375154 395.3811142721406Q988.160846375154 396.9737214099297 987.5120064301288 398.33038674952775Q986.8336737603297 399.6870520891258 985.7424429436967 400.7487901809851L985.7424429436967 400.7487901809851Q983.0586049892743 402.90175908947765 980.2273034109828 402.90175908947765Q977.4254945574651 402.90175908947765 974.7416566030429 400.21792113505546L974.7416566030429 400.21792113505546Z " fill="#e2d1f9" transform="matrix(0.8854833904847719,0,0,0.8854833904847719,0,7.742021402788225)"/></g></svg>